<svg fill="#fff" xmlns="http://www.w3.org/2000/svg" viewBox="0 0 442.661 442.661" style="enable-background:new 0 0 256 256" xml:space="preserve"><path d="m436.592 175.948-133.821-51.041v-1.042h10.415a5 5 0 0 0 3.039-8.971L226.333 46.08V34.654c8.089-1.42 16.371-.26 25.074.962 6.042.848 12.2 1.713 18.467 1.713 4.723 0 9.507-.491 14.348-1.851a5 5 0 0 0 3.648-4.814v-24a5 5 0 0 0-6.352-4.814c-9.248 2.597-18.707 1.269-28.722-.138-9.393-1.319-19.068-2.677-28.993-.764-1.27.245-3.979.956-4.05.995-1.982.664-3.42 2.515-3.42 4.721V46.08l-89.893 68.815a5 5 0 0 0 3.039 8.971h10.415v1.044L6.068 175.948a5 5 0 0 0-3.218 4.672v16.82a5 5 0 0 0 6.782 4.672l8.771-3.345v194.051h-3.078a5 5 0 0 0-5 5v39.843a5 5 0 0 0 5 5h412.009a5 5 0 0 0 5-5v-39.843a5 5 0 0 0-5-5h-3.072v-194.05l8.766 3.344a4.998 4.998 0 0 0 4.618-.554 5.002 5.002 0 0 0 2.164-4.118v-16.82a5 5 0 0 0-3.218-4.672zM224.106 278.965a4.995 4.995 0 0 0-5.546 0l-78.558 52.367v-7.121l81.331-54.216 81.331 54.216v7.121l-78.558-52.367zm38.109-155.1v16.799a5 5 0 0 0 5 5h.465v143.209l-43.574-29.047a4.999 4.999 0 0 0-5.547 0l-43.58 29.05V145.664h.47a5 5 0 0 0 5-5v-16.799h81.766zm30.556 11.799h-20.556v-11.799h20.556v11.799zm-122.321 0H149.9l-.005-11.799h20.555v11.799zm-15.088 10h9.618v149.878l-9.618 6.411V145.664zm122.319 149.875V145.664h9.618V301.95l-9.618-6.411zM144.237 113.865l5.492-4.205h38.141a5 5 0 0 0 0-10h-25.078l6.531-5h15.547a5 5 0 0 0 0-10h-2.484l38.946-29.814 77.096 59.019H144.237zm107.17-102.249c8.593 1.207 17.422 2.447 26.464 1.184v13.878c-8.089 1.419-16.372.257-25.074-.965-8.593-1.206-17.423-2.445-26.464-1.183V10.654c8.089-1.419 16.371-.26 25.074.962zM12.85 184.064l127.045-48.452.005 6.115-127.05 48.455v-6.118zm15.553 10.888 116.959-44.606V308.62l-13.134 8.755a5 5 0 0 0-2.227 4.16v19.14a5 5 0 0 0 7.774 4.16l7.945-5.296v28.115h-3.944a5 5 0 0 0-5 5v20.164H28.403V194.952zm-8.077 234.287h39.545a5 5 0 0 0 0-10H20.326v-3h21.545a5 5 0 0 0 0-10H20.326v-3.422h116.451v3.422h-21.545a5 5 0 0 0 0 10h21.545v3h-9.906a5 5 0 0 0 0 10h9.906v3.421H20.326v-3.421zm132.048 3.422h-5.598v-55.007h5.598v55.007zm10-41.377h117.917v5.728H162.374v-5.728zm100.093-10h-10.97v-38.231h10.97v38.231zm-20.97 0h-15.164v-38.231h15.164v38.231zm-25.164 0h-15.164v-38.231h15.164v38.231zm-25.164 0h-10.97v-38.231h10.97v38.231zm-28.795 25.728h117.917v6.776H162.374v-6.776zm0 16.775h117.917v8.873H162.374v-8.873zm117.917-51.134v8.63h-7.825v-43.231a5 5 0 0 0-5-5h-92.268a5 5 0 0 0-5 5v43.231h-7.825v-8.63a5 5 0 0 0-5-5h-1.653v-34.781l22.481-14.986h51.669a5 5 0 0 0 0-10h-36.667l8.538-5.691h12.129a5 5 0 0 0 5-5c0-1.996-1.178-3.705-2.868-4.506l5.331-3.554 65.612 43.738v34.781h-1.654a4.999 4.999 0 0 0-5 4.999zm15.598 60.008h-5.598v-55.007h5.598v55.007zm10 0v-3.421h9.906a5 5 0 0 0 0-10h-9.906v-3h21.545a5 5 0 0 0 0-10h-21.545v-3.422h116.446v3.422H400.79a5 5 0 0 0 0 10h21.545v3H382.79a5 5 0 0 0 0 10h39.545v3.421H305.889zm108.374-39.844H305.889v-20.164a5 5 0 0 0-5-5h-3.944v-28.115l7.945 5.296a4.997 4.997 0 0 0 5.133.248 5 5 0 0 0 2.641-4.408v-19.14a4.997 4.997 0 0 0-2.227-4.16l-13.139-8.759V150.343l116.964 44.611v197.863zm15.547-202.635-127.039-48.454v-6.117l127.039 48.454v6.117z"/><path d="M220.824 143.274c-8.547 0-15.5 6.953-15.5 15.5v23.052a5 5 0 0 0 5 5h22.019a5 5 0 0 0 5-5v-23.052c0-8.547-6.953-15.5-15.5-15.5h-1.019zm6.518 15.5v18.052h-12.019v-18.052c0-3.033 2.467-5.5 5.5-5.5h1.019c3.033 0 5.5 2.467 5.5 5.5zM221.842 199.997h-1.019c-8.547 0-15.5 6.953-15.5 15.5v23.052a5 5 0 0 0 5 5h22.019a5 5 0 0 0 5-5v-23.052c0-8.546-6.953-15.5-15.5-15.5zm5.5 33.553h-12.019v-18.052c0-3.033 2.467-5.5 5.5-5.5h1.019c3.033 0 5.5 2.467 5.5 5.5v18.052zM47.911 247.639H69.93a5 5 0 0 0 5-5v-23.052c0-8.547-6.953-15.5-15.5-15.5h-1.019c-8.547 0-15.5 6.953-15.5 15.5v23.052a5 5 0 0 0 5 5zm5-28.052c0-3.033 2.467-5.5 5.5-5.5h1.019c3.033 0 5.5 2.467 5.5 5.5v18.052H52.911v-18.052zM106.677 204.087h-1.019c-8.547 0-15.5 6.953-15.5 15.5v23.052a5 5 0 0 0 5 5h22.019a5 5 0 0 0 5-5v-23.052c0-8.547-6.953-15.5-15.5-15.5zm5.5 33.552h-12.019v-18.052c0-3.033 2.467-5.5 5.5-5.5h1.019c3.033 0 5.5 2.467 5.5 5.5v18.052zM47.911 311.598H69.93a5 5 0 0 0 5-5v-23.052c0-8.547-6.953-15.5-15.5-15.5h-1.019c-8.547 0-15.5 6.953-15.5 15.5v23.052a5 5 0 0 0 5 5zm5-28.053c0-3.033 2.467-5.5 5.5-5.5h1.019c3.033 0 5.5 2.467 5.5 5.5v18.052H52.911v-18.052zM106.677 268.045h-1.019c-8.547 0-15.5 6.953-15.5 15.5v23.052a5 5 0 0 0 5 5h22.019a5 5 0 0 0 5-5v-23.052c0-8.547-6.953-15.5-15.5-15.5zm5.5 33.553h-12.019v-18.052c0-3.033 2.467-5.5 5.5-5.5h1.019c3.033 0 5.5 2.467 5.5 5.5v18.052zM47.911 375.556H69.93a5 5 0 0 0 5-5v-23.052c0-8.547-6.953-15.5-15.5-15.5h-1.019c-8.547 0-15.5 6.953-15.5 15.5v23.052a5 5 0 0 0 5 5zm5-28.052c0-3.033 2.467-5.5 5.5-5.5h1.019c3.033 0 5.5 2.467 5.5 5.5v18.052H52.911v-18.052zM106.677 332.004h-1.019c-8.547 0-15.5 6.953-15.5 15.5v23.052a5 5 0 0 0 5 5h22.019a5 5 0 0 0 5-5v-23.052c0-8.547-6.953-15.5-15.5-15.5zm5.5 33.552h-12.019v-18.052c0-3.033 2.467-5.5 5.5-5.5h1.019c3.033 0 5.5 2.467 5.5 5.5v18.052zM372.737 247.639h22.019a5 5 0 0 0 5-5v-23.052c0-8.547-6.953-15.5-15.5-15.5h-1.019c-8.547 0-15.5 6.953-15.5 15.5v23.052a5 5 0 0 0 5 5zm5-28.052c0-3.033 2.467-5.5 5.5-5.5h1.019c3.033 0 5.5 2.467 5.5 5.5v18.052h-12.019v-18.052zM335.988 204.087c-8.547 0-15.5 6.953-15.5 15.5v23.052a5 5 0 0 0 5 5h22.019a5 5 0 0 0 5-5v-23.052c0-8.547-6.953-15.5-15.5-15.5h-1.019zm6.519 15.5v18.052h-12.019v-18.052c0-3.033 2.467-5.5 5.5-5.5h1.019c3.032 0 5.5 2.467 5.5 5.5zM384.255 268.045h-1.019c-8.547 0-15.5 6.953-15.5 15.5v23.052a5 5 0 0 0 5 5h22.019a5 5 0 0 0 5-5v-23.052c0-8.547-6.953-15.5-15.5-15.5zm5.5 33.553h-12.019v-18.052c0-3.033 2.467-5.5 5.5-5.5h1.019c3.033 0 5.5 2.467 5.5 5.5v18.052zM337.007 268.045h-1.019c-8.547 0-15.5 6.953-15.5 15.5v23.052a5 5 0 0 0 5 5h22.019a5 5 0 0 0 5-5v-23.052c0-8.547-6.953-15.5-15.5-15.5zm5.5 33.553h-12.019v-18.052c0-3.033 2.467-5.5 5.5-5.5h1.019c3.033 0 5.5 2.467 5.5 5.5v18.052zM384.255 332.004h-1.019c-8.547 0-15.5 6.953-15.5 15.5v23.052a5 5 0 0 0 5 5h22.019a5 5 0 0 0 5-5v-23.052c0-8.547-6.953-15.5-15.5-15.5zm5.5 33.552h-12.019v-18.052c0-3.033 2.467-5.5 5.5-5.5h1.019c3.033 0 5.5 2.467 5.5 5.5v18.052zM337.007 332.004h-1.019c-8.547 0-15.5 6.953-15.5 15.5v23.052a5 5 0 0 0 5 5h22.019a5 5 0 0 0 5-5v-23.052c0-8.547-6.953-15.5-15.5-15.5zm5.5 33.552h-12.019v-18.052c0-3.033 2.467-5.5 5.5-5.5h1.019c3.033 0 5.5 2.467 5.5 5.5v18.052zM203.751 90.606c0 9.695 7.887 17.582 17.582 17.582s17.582-7.887 17.582-17.582-7.887-17.582-17.582-17.582-17.582 7.887-17.582 17.582zm25.164 0c0 4.181-3.401 7.582-7.582 7.582s-7.582-3.401-7.582-7.582 3.401-7.582 7.582-7.582 7.582 3.401 7.582 7.582zM189.871 136.661h32a5 5 0 0 0 0-10h-32a5 5 0 0 0 0 10zM126.633 170.661h11a5 5 0 0 0 0-10h-11a5 5 0 0 0 0 10zM109.533 184.661h28.1a5 5 0 0 0 0-10h-28.1a5 5 0 0 0 0 10zM305.033 170.661h11a5 5 0 0 0 0-10h-11a5 5 0 0 0 0 10zM300.033 179.661a5 5 0 0 0 5 5h28.1a5 5 0 0 0 0-10h-28.1a5 5 0 0 0-5 5zM57.964 379.661H35.871a5 5 0 0 0 0 10h22.094a5 5 0 0 0-.001-10zM70.873 379.66c-1.32 0-2.61.53-3.54 1.46-.93.93-1.46 2.22-1.46 3.54a5.003 5.003 0 0 0 5 5c1.32 0 2.6-.53 3.53-1.46.93-.93 1.47-2.22 1.47-3.54 0-1.32-.54-2.61-1.47-3.54a5.012 5.012 0 0 0-3.53-1.46zM235.204 195.331a5 5 0 0 0 5 5h8.667a5 5 0 0 0 0-10h-8.667a5 5 0 0 0-5 5zM243.204 207.664a5 5 0 0 0 5 5h8.667a5 5 0 0 0 0-10h-8.667a5 5 0 0 0-5 5zM186.871 254.331h8.667a5 5 0 0 0 0-10h-8.667a5 5 0 0 0 0 10zM364.204 266.331h8.667a5 5 0 0 0 0-10h-8.667a5 5 0 0 0 0 10z"/></svg>